<?xml version="1.0" encoding="UTF-8" standalone="no"?>
<svg width="48px" height="48px" viewBox="0 0 48 48" version="1.1" xmlns="http://www.w3.org/2000/svg" xmlns:xlink="http://www.w3.org/1999/xlink" xmlns:sketch="http://www.bohemiancoding.com/sketch/ns">
    <!-- Generator: Sketch 3.2.2 (9983) - http://www.bohemiancoding.com/sketch -->
    <title>AddtoSidebar</title>
    <desc>Created with Sketch.</desc>
    <defs></defs>
    <g id="Symbols" stroke="none" stroke-width="1" fill="none" fill-rule="evenodd" sketch:type="MSPage">
        <g id="AddtoSidebar" sketch:type="MSArtboardGroup" fill="#FFBC00">
            <g id="onImage" sketch:type="MSLayerGroup" transform="translate(-1.000000, 0.000000)">
                <path d="M9.1821172,0.212019245 C-1.74713073,11.1471381 -1.74532009,28.8716964 9.18754914,39.8045656 C20.1222293,50.7392458 37.8508487,50.7392458 48.7855289,39.8045656 L48.7771089,39.7961456 L48.7954121,39.7962369 L48.7954124,0.182546182 L9.18198001,0.182546417 L9.18211721,0.212018377 L9.1821172,0.212019245 Z M38.5714585,21.2597232 C38.5714585,20.3132935 37.8036005,19.5454355 36.8571708,19.5454355 L29.4285905,19.5454355 L29.4285905,12.1168552 C29.4285905,11.1704255 28.6607324,10.4025674 27.7143027,10.4025674 L24.2857272,10.4025674 C23.3392975,10.4025674 22.5714395,11.1704255 22.5714395,12.1168552 L22.5714395,19.5454355 L15.1428592,19.5454355 C14.1964295,19.5454355 13.4285714,20.3132935 13.4285714,21.2597232 L13.4285714,24.6882987 C13.4285714,25.6347284 14.1964295,26.4025865 15.1428592,26.4025865 L22.5714395,26.4025865 L22.5714395,33.8311668 C22.5714395,34.7775965 23.3392975,35.5454545 24.2857272,35.5454545 L27.7143027,35.5454545 C28.6607324,35.5454545 29.4285905,34.7775965 29.4285905,33.8311668 L29.4285905,26.4025865 L36.8571708,26.4025865 C37.8036005,26.4025865 38.5714585,25.6347284 38.5714585,24.6882987 L38.5714585,21.2597232 Z" id="Oval-25" sketch:type="MSShapeGroup"></path>
            </g>
        </g>
    </g>
</svg>