<?xml version="1.0" encoding="UTF-8" standalone="no"?>
<svg width="32px" height="33px" viewBox="0 0 32 33" version="1.1" xmlns="http://www.w3.org/2000/svg" xmlns:xlink="http://www.w3.org/1999/xlink" xmlns:sketch="http://www.bohemiancoding.com/sketch/ns">
    <!-- Generator: Sketch 3.2.2 (9983) - http://www.bohemiancoding.com/sketch -->
    <title>TextIcon</title>
    <desc>Created with Sketch.</desc>
    <defs></defs>
    <g id="Symbols" stroke="none" stroke-width="1" fill="none" fill-rule="evenodd" sketch:type="MSPage">
        <g id="TextIcon" sketch:type="MSArtboardGroup" transform="translate(0.000000, 0.780000)" fill="#FFFFFF">
            <path d="M11.53,20.872 L12.102,24.148 L18.446,24.148 L13.298,6 L6.174,6 L1,24.148 L7.292,24.148 L7.838,20.872 L11.53,20.872 Z M10.802,16.712 L8.54,16.712 L9.658,10.134 L10.802,16.712 Z M31.03,14.918 C31.03,11.356 29.158,9.666 24.478,9.666 C22.866,9.666 20.578,10.056 18.81,10.784 L20.058,14.398 C21.436,13.93 22.866,13.67 23.62,13.67 C25.076,13.67 25.414,13.956 25.414,15.23 L25.414,15.412 L24.686,15.412 C20.188,15.412 17.822,17.128 17.822,20.222 C17.822,22.822 19.668,24.72 22.45,24.72 C24.01,24.72 25.622,24.252 26.662,22.692 C27.52,24.018 28.794,24.46 30.64,24.59 L31.81,20.924 C31.186,20.69 31.03,20.3 31.03,19.364 L31.03,14.918 Z M24.27,20.69 C23.776,20.69 23.412,20.248 23.412,19.65 C23.412,18.74 23.958,18.35 25.154,18.35 L25.414,18.35 L25.414,20.118 C25.154,20.43 24.738,20.69 24.27,20.69 L24.27,20.69 Z" id="Aa" sketch:type="MSShapeGroup"></path>
        </g>
    </g>
</svg>