<?xml version="1.0" encoding="UTF-8" standalone="no"?>
<svg width="39px" height="38px" viewBox="0 0 39 38" version="1.1" xmlns="http://www.w3.org/2000/svg" xmlns:xlink="http://www.w3.org/1999/xlink" xmlns:sketch="http://www.bohemiancoding.com/sketch/ns">
    <!-- Generator: Sketch 3.2.2 (9983) - http://www.bohemiancoding.com/sketch -->
    <title>WebmakerIcon</title>
    <desc>Created with Sketch.</desc>
    <defs></defs>
    <g id="Symbols" stroke="none" stroke-width="1" fill="none" fill-rule="evenodd" sketch:type="MSPage">
        <g id="WebmakerIcon" sketch:type="MSArtboardGroup" transform="translate(0.740000, 0.000000)" fill="#FFFFFF">
            <g id="Webmaker" sketch:type="MSLayerGroup">
                <path d="M11.7144729,36.0886463 C13.9563692,37.0231928 16.4180911,37.5395108 19.001036,37.5395108 C29.4214932,37.5395108 37.8689428,29.1360051 37.8689428,18.7697554 C37.8689428,16.4803158 37.4569016,14.286613 36.702566,12.258031 L36.702566,12.258031 C36.9039319,13.4228868 36.5993433,14.8422655 36.0134239,15.8775211 L36.2048356,15.9467627 L35.6912333,16.3691703 C35.4127148,16.7347616 35.0928135,17.0164898 34.7473024,17.1695096 L34.7394477,17.1519581 L27.4687639,23.1316681 L27.4687639,25.3391698 L24.7846794,25.3391698 L11.7144729,36.0886463 Z M10.7415852,35.6503046 C4.46058099,32.6032943 0.133129268,26.1892612 0.133129268,18.7697554 C0.133129268,8.40350574 8.58057886,0 19.001036,0 C26.6301894,0 33.2017757,4.50442797 36.1749917,10.9856978 C36.1487588,10.952136 36.1215785,10.9193957 36.0934365,10.8875169 C34.6321857,9.23223531 31.2809891,9.72957736 25.9331216,12.7888848 C25.4295668,12.4697964 24.8228283,12.3018854 24.1445689,12.3018854 C22.518344,12.3018854 21.3465055,12.968024 20.3420725,14.3003013 C19.8637711,13.0156053 18.7636778,12.3018854 17.3526885,12.3018854 C15.7982089,12.3018854 14.6502854,12.9442334 13.6697675,14.1813479 L13.4067017,12.7063267 L10.1064218,12.7063267 L10.1064218,21.2424905 C7.71994918,21.3153844 6.42866589,19.9395294 6.33126243,17.4687074 C6.25711749,15.5878817 7.03738691,13.4919329 8.26400698,12.3000316 C9.6130974,10.9891263 11.2509202,10.9457164 12.9034942,12.4594312 L13.2230037,12.1142315 C11.3840863,10.4298309 9.46117592,10.480797 7.93440754,11.9643511 C6.60918645,13.2520627 5.7807064,15.4775142 5.85992706,17.4870954 C5.96945902,20.2655795 7.45236383,21.7848346 10.1064218,21.6905114 L10.1064218,25.3391698 L13.8850031,25.3391698 L13.8850031,20.7620288 C14.8163884,20.3817935 15.8220207,19.8818283 16.8983022,19.2558285 L16.8983022,25.3391698 L20.6768835,25.3391698 L20.6768835,16.751109 C21.4926105,16.1718003 22.2757295,15.6348099 23.0264368,15.1390908 C23.4087363,15.302675 23.6901826,15.7533915 23.6901826,16.7507398 L23.6901826,24.4982131 L10.7415852,35.6503046 Z M27.4687639,21.2438772 L27.4687639,16.1083918 C27.4687639,14.7730569 27.0477746,13.7463109 26.3371395,13.0975672 C31.3752323,10.2395372 34.4785766,9.7693552 35.7390085,11.1971524 C36.6363091,12.2136002 36.3476057,14.3831984 35.5666125,15.7158908 L35.4302425,15.6665601 L34.6444176,15.3822945 L34.3839834,15.2880846 L34.1744744,15.468526 L27.4687639,21.2438772 Z M13.8850031,20.274378 L13.8850031,16.7031584 C14.4350498,15.6563692 15.0329266,15.0616025 15.8221239,15.0616025 C16.3960856,15.0616025 16.8983022,15.4184625 16.8983022,16.7507398 L16.8983022,18.7174209 C15.8143253,19.3649285 14.8091899,19.8813962 13.8850031,20.274378 L13.8850031,20.274378 Z M21.3077403,15.7345848 C21.5826685,15.4155392 21.8795349,15.2034923 22.2193435,15.1123737 C21.9201694,15.3136093 21.6163056,15.5209977 21.3077403,15.7345848 L21.3077403,15.7345848 Z" id="Oval-39" sketch:type="MSShapeGroup"></path>
            </g>
        </g>
    </g>
</svg>